<svg width="13" height="13" viewBox="0 0 13 13" fill="none" xmlns="http://www.w3.org/2000/svg">
<path d="M4.99219 12H3.10156V2.86719L0.3125 3.82031V2.21875L4.75 0.585938H4.99219V12ZM11.05 10C11.4042 10 11.6776 10.1016 11.8703 10.3047C12.063 10.5026 12.1594 10.7526 12.1594 11.0547C12.1594 11.3516 12.063 11.599 11.8703 11.7969C11.6776 11.9896 11.4042 12.0859 11.05 12.0859C10.7115 12.0859 10.4432 11.9896 10.2453 11.7969C10.0474 11.6042 9.94844 11.3568 9.94844 11.0547C9.94844 10.7526 10.0448 10.5026 10.2375 10.3047C10.4302 10.1016 10.701 10 11.05 10Z" fill="white"/>
</svg>
