<svg width="14" height="13" viewBox="0 0 14 13" fill="none" xmlns="http://www.w3.org/2000/svg">
<path d="M8.5 12H0.851562V10.6953L4.64062 6.5625C5.1875 5.95312 5.57552 5.44531 5.80469 5.03906C6.03906 4.6276 6.15625 4.21615 6.15625 3.80469C6.15625 3.26302 6.0026 2.82552 5.69531 2.49219C5.39323 2.15885 4.98438 1.99219 4.46875 1.99219C3.85417 1.99219 3.3776 2.17969 3.03906 2.55469C2.70052 2.92969 2.53125 3.44271 2.53125 4.09375H0.632812C0.632812 3.40104 0.789062 2.77865 1.10156 2.22656C1.41927 1.66927 1.86979 1.23698 2.45312 0.929688C3.04167 0.622396 3.71875 0.46875 4.48438 0.46875C5.58854 0.46875 6.45833 0.747396 7.09375 1.30469C7.73438 1.85677 8.05469 2.6224 8.05469 3.60156C8.05469 4.16927 7.89323 4.76562 7.57031 5.39062C7.2526 6.01042 6.72917 6.71615 6 7.50781L3.21875 10.4844H8.5V12ZM12.05 10C12.4042 10 12.6776 10.1016 12.8703 10.3047C13.063 10.5026 13.1594 10.7526 13.1594 11.0547C13.1594 11.3516 13.063 11.599 12.8703 11.7969C12.6776 11.9896 12.4042 12.0859 12.05 12.0859C11.7115 12.0859 11.4432 11.9896 11.2453 11.7969C11.0474 11.6042 10.9484 11.3568 10.9484 11.0547C10.9484 10.7526 11.0448 10.5026 11.2375 10.3047C11.4302 10.1016 11.701 10 12.05 10Z" fill="white"/>
</svg>
