<svg width="14" height="13" viewBox="0 0 14 13" fill="none" xmlns="http://www.w3.org/2000/svg">
<path d="M3.04688 5.44531H4.20312C4.78646 5.4401 5.2474 5.28906 5.58594 4.99219C5.92969 4.69531 6.10156 4.26562 6.10156 3.70312C6.10156 3.16146 5.95833 2.74219 5.67188 2.44531C5.39062 2.14323 4.95833 1.99219 4.375 1.99219C3.86458 1.99219 3.44531 2.14062 3.11719 2.4375C2.78906 2.72917 2.625 3.11198 2.625 3.58594H0.726562C0.726562 3.0026 0.880208 2.47135 1.1875 1.99219C1.5 1.51302 1.93229 1.14062 2.48438 0.875C3.04167 0.604167 3.66406 0.46875 4.35156 0.46875C5.48698 0.46875 6.3776 0.755208 7.02344 1.32812C7.67448 1.89583 8 2.6875 8 3.70312C8 4.21354 7.83594 4.69531 7.50781 5.14844C7.1849 5.59635 6.76562 5.9349 6.25 6.16406C6.875 6.3776 7.34896 6.71354 7.67188 7.17188C8 7.63021 8.16406 8.17708 8.16406 8.8125C8.16406 9.83333 7.8125 10.6458 7.10938 11.25C6.41146 11.8542 5.49219 12.1562 4.35156 12.1562C3.25781 12.1562 2.36198 11.8646 1.66406 11.2812C0.966146 10.6979 0.617188 9.92188 0.617188 8.95312H2.51562C2.51562 9.45312 2.68229 9.85938 3.01562 10.1719C3.35417 10.4844 3.80729 10.6406 4.375 10.6406C4.96354 10.6406 5.42708 10.4844 5.76562 10.1719C6.10417 9.85938 6.27344 9.40625 6.27344 8.8125C6.27344 8.21354 6.09635 7.7526 5.74219 7.42969C5.38802 7.10677 4.86198 6.94531 4.16406 6.94531H3.04688V5.44531ZM12.05 10C12.4042 10 12.6776 10.1016 12.8703 10.3047C13.063 10.5026 13.1594 10.7526 13.1594 11.0547C13.1594 11.3516 13.063 11.599 12.8703 11.7969C12.6776 11.9896 12.4042 12.0859 12.05 12.0859C11.7115 12.0859 11.4432 11.9896 11.2453 11.7969C11.0474 11.6042 10.9484 11.3568 10.9484 11.0547C10.9484 10.7526 11.0448 10.5026 11.2375 10.3047C11.4302 10.1016 11.701 10 12.05 10Z" fill="white"/>
</svg>
